<svg id="visual" viewBox="0 0 900 600" width="900" height="600" xmlns="http://www.w3.org/2000/svg" xmlns:xlink="http://www.w3.org/1999/xlink" version="1.1"><g fill="#ffab58"><circle r="46" cx="26" cy="287"></circle><circle r="29" cx="247" cy="323"></circle><circle r="29" cx="119" cy="56"></circle><circle r="39" cx="581" cy="536"></circle><circle r="28" cx="567" cy="315"></circle><circle r="31" cx="159" cy="178"></circle><circle r="35" cx="859" cy="533"></circle><circle r="34" cx="846" cy="37"></circle><circle r="40" cx="724" cy="62"></circle><circle r="38" cx="128" cy="405"></circle><circle r="37" cx="160" cy="283"></circle><circle r="39" cx="61" cy="153"></circle><circle r="42" cx="233" cy="463"></circle><circle r="34" cx="581" cy="136"></circle><circle r="34" cx="295" cy="75"></circle><circle r="28" cx="527" cy="432"></circle><circle r="37" cx="387" cy="256"></circle><circle r="34" cx="777" cy="425"></circle><circle r="31" cx="352" cy="385"></circle><circle r="32" cx="795" cy="169"></circle><circle r="35" cx="494" cy="594"></circle><circle r="29" cx="362" cy="149"></circle><circle r="36" cx="888" cy="268"></circle><circle r="38" cx="742" cy="326"></circle><circle r="37" cx="609" cy="9"></circle><circle r="36" cx="138" cy="570"></circle><circle r="36" cx="289" cy="220"></circle><circle r="29" cx="698" cy="171"></circle><circle r="41" cx="662" cy="595"></circle><circle r="28" cx="249" cy="588"></circle><circle r="40" cx="39" cy="492"></circle><circle r="31" cx="22" cy="4"></circle><circle r="35" cx="504" cy="243"></circle><circle r="33" cx="428" cy="38"></circle><circle r="38" cx="674" cy="492"></circle><circle r="44" cx="358" cy="570"></circle><circle r="29" cx="459" cy="498"></circle><circle r="30" cx="886" cy="375"></circle><circle r="38" cx="751" cy="543"></circle><circle r="29" cx="435" cy="338"></circle><circle r="43" cx="636" cy="249"></circle><circle r="42" cx="219" cy="4"></circle><circle r="44" cx="626" cy="404"></circle><circle r="34" cx="484" cy="133"></circle><circle r="32" cx="17" cy="400"></circle><circle r="37" cx="880" cy="123"></circle><circle r="30" cx="324" cy="480"></circle><circle r="42" cx="45" cy="596"></circle><circle r="29" cx="519" cy="32"></circle></g></svg>