<svg viewBox="0 0 369.89473684210526 73.349271998779" xmlns:xlink="http://www.w3.org/1999/xlink" xmlns="http://www.w3.org/2000/svg" height="73.349271998779" width="369.89473684210526" style="width: 369.895px; height: 73.3493px; position: absolute; top: 50%; left: 50%; transform: translate(-50%, -50%) scale(1); z-index: 0; cursor: pointer; overflow: visible;"><defs id="SvgjsDefs1001"><linearGradient id="SvgjsLinearGradient1011"><stop id="SvgjsStop1012" stop-color="#2d388a" offset="0"></stop><stop id="SvgjsStop1013" stop-color="#00aeef" offset="1"></stop></linearGradient><linearGradient id="SvgjsLinearGradient1014"><stop id="SvgjsStop1015" stop-color="#2d388a" offset="0"></stop><stop id="SvgjsStop1016" stop-color="#00aeef" offset="1"></stop></linearGradient><linearGradient id="SvgjsLinearGradient1011"><stop id="SvgjsStop1012" stop-color="#2d388a" offset="0"></stop><stop id="SvgjsStop1013" stop-color="#00aeef" offset="1"></stop></linearGradient><linearGradient id="SvgjsLinearGradient1011"><stop id="SvgjsStop1012" stop-color="#2d388a" offset="0"></stop><stop id="SvgjsStop1013" stop-color="#00aeef" offset="1"></stop></linearGradient><linearGradient id="SvgjsLinearGradient1011"><stop id="SvgjsStop1012" stop-color="#2d388a" offset="0"></stop><stop id="SvgjsStop1013" stop-color="#00aeef" offset="1"></stop></linearGradient><linearGradient id="SvgjsLinearGradient1011"><stop id="SvgjsStop1012" stop-color="#2d388a" offset="0"></stop><stop id="SvgjsStop1013" stop-color="#00aeef" offset="1"></stop></linearGradient><linearGradient id="SvgjsLinearGradient1011"><stop id="SvgjsStop1012" stop-color="#2d388a" offset="0"></stop><stop id="SvgjsStop1013" stop-color="#00aeef" offset="1"></stop></linearGradient><linearGradient id="SvgjsLinearGradient1011"><stop id="SvgjsStop1012" stop-color="#2d388a" offset="0"></stop><stop id="SvgjsStop1013" stop-color="#00aeef" offset="1"></stop></linearGradient><linearGradient id="SvgjsLinearGradient1011"><stop id="SvgjsStop1012" stop-color="#2d388a" offset="0"></stop><stop id="SvgjsStop1013" stop-color="#00aeef" offset="1"></stop></linearGradient><linearGradient id="SvgjsLinearGradient1011"><stop id="SvgjsStop1012" stop-color="#2d388a" offset="0"></stop><stop id="SvgjsStop1013" stop-color="#00aeef" offset="1"></stop></linearGradient><linearGradient id="SvgjsLinearGradient1011"><stop id="SvgjsStop1012" stop-color="#2d388a" offset="0"></stop><stop id="SvgjsStop1013" stop-color="#00aeef" offset="1"></stop></linearGradient><linearGradient id="SvgjsLinearGradient1011"><stop id="SvgjsStop1012" stop-color="#2d388a" offset="0"></stop><stop id="SvgjsStop1013" stop-color="#00aeef" offset="1"></stop></linearGradient><linearGradient id="SvgjsLinearGradient1011"><stop id="SvgjsStop1012" stop-color="#2d388a" offset="0"></stop><stop id="SvgjsStop1013" stop-color="#00aeef" offset="1"></stop></linearGradient><linearGradient id="SvgjsLinearGradient1011"><stop id="SvgjsStop1012" stop-color="#2d388a" offset="0"></stop><stop id="SvgjsStop1013" stop-color="#00aeef" offset="1"></stop></linearGradient><linearGradient id="SvgjsLinearGradient1011"><stop id="SvgjsStop1012" stop-color="#2d388a" offset="0"></stop><stop id="SvgjsStop1013" stop-color="#00aeef" offset="1"></stop></linearGradient><linearGradient id="SvgjsLinearGradient1011"><stop id="SvgjsStop1012" stop-color="#2d388a" offset="0"></stop><stop id="SvgjsStop1013" stop-color="#00aeef" offset="1"></stop></linearGradient><linearGradient id="SvgjsLinearGradient1011"><stop id="SvgjsStop1012" stop-color="#2d388a" offset="0"></stop><stop id="SvgjsStop1013" stop-color="#00aeef" offset="1"></stop></linearGradient><linearGradient id="SvgjsLinearGradient1011"><stop id="SvgjsStop1012" stop-color="#2d388a" offset="0"></stop><stop id="SvgjsStop1013" stop-color="#00aeef" offset="1"></stop></linearGradient><linearGradient id="SvgjsLinearGradient1011"><stop id="SvgjsStop1012" stop-color="#2d388a" offset="0"></stop><stop id="SvgjsStop1013" stop-color="#00aeef" offset="1"></stop></linearGradient><linearGradient id="SvgjsLinearGradient1011"><stop id="SvgjsStop1012" stop-color="#2d388a" offset="0"></stop><stop id="SvgjsStop1013" stop-color="#00aeef" offset="1"></stop></linearGradient><linearGradient id="SvgjsLinearGradient1011"><stop id="SvgjsStop1012" stop-color="#2d388a" offset="0"></stop><stop id="SvgjsStop1013" stop-color="#00aeef" offset="1"></stop></linearGradient><linearGradient id="SvgjsLinearGradient1011"><stop id="SvgjsStop1012" stop-color="#2d388a" offset="0"></stop><stop id="SvgjsStop1013" stop-color="#00aeef" offset="1"></stop></linearGradient><linearGradient id="SvgjsLinearGradient1011"><stop id="SvgjsStop1012" stop-color="#2d388a" offset="0"></stop><stop id="SvgjsStop1013" stop-color="#00aeef" offset="1"></stop></linearGradient><linearGradient id="SvgjsLinearGradient1011"><stop id="SvgjsStop1012" stop-color="#2d388a" offset="0"></stop><stop id="SvgjsStop1013" stop-color="#00aeef" offset="1"></stop></linearGradient><linearGradient id="SvgjsLinearGradient1011"><stop id="SvgjsStop1012" stop-color="#2d388a" offset="0"></stop><stop id="SvgjsStop1013" stop-color="#00aeef" offset="1"></stop></linearGradient><linearGradient id="SvgjsLinearGradient1011"><stop id="SvgjsStop1012" stop-color="#2d388a" offset="0"></stop><stop id="SvgjsStop1013" stop-color="#00aeef" offset="1"></stop></linearGradient><linearGradient id="SvgjsLinearGradient1011"><stop id="SvgjsStop1012" stop-color="#2d388a" offset="0"></stop><stop id="SvgjsStop1013" stop-color="#00aeef" offset="1"></stop></linearGradient><linearGradient id="SvgjsLinearGradient1014"><stop id="SvgjsStop1015" stop-color="#2d388a" offset="0"></stop><stop id="SvgjsStop1016" stop-color="#00aeef" offset="1"></stop></linearGradient><linearGradient id="SvgjsLinearGradient1014"><stop id="SvgjsStop1015" stop-color="#2d388a" offset="0"></stop><stop id="SvgjsStop1016" stop-color="#00aeef" offset="1"></stop></linearGradient></defs><g id="SvgjsG1007" featurekey="aMgJeN-0" transform="matrix(0.22523345052013788,0,0,0.22523345052013788,-12.461773717272049,-25.625071823995263)" fill="url(&quot;#SvgjsLinearGradient1011&quot;)"><g xmlns="http://www.w3.org/2000/svg" fill="url(&quot;#SvgjsLinearGradient1011&quot;)"><path d="M138.39 150.82q2.01.83 3.49 1.3 48.4 15.18 117.23 36.5a3.4 3.4 0 0 0 2 0l84.97-26.19a1.51 1.37 37.3 0 1 .56-.05l4.72.6a.55.53-16.8 0 1 .29.15l1.99 1.99a.46.46 0 0 1-.18.76q-46.46 15.29-90.91 29.19-2.53.79-4.5.15-73.14-23.55-140.97-45.45a.36.35 47 0 1 .02-.68l141.99-35.25a2.23 2.15-44 0 1 1.09 0l142.15 35.19a.48.48 0 0 1 .04.92l-39.12 12.77a1.13 1.12 61.2 0 1-1.22-.36q-1.6-1.96-4.24-3.31a.14.14 0 0 1 .02-.25l24.72-7.85a.04.04 0 0 0 .03-.05l-.06-.25a.16.16 0 0 0-.19-.11l-25.57 6.79a1.16 1.15 57.2 0 1-1.03-.23c-2.52-2.1-4.62-1.05-7.42-2.03q-2.55-.89-4.66.39a1.86 1.84 36.2 0 1-1.39.21q-1.39-.35-2.61.28a.68.68 0 0 0 .34 1.29q3.05-.14 4.82 2.01a.77.76 70.3 0 1-.59 1.25h-1.96a2.54 2.51 68 0 1-1.83-.79q-1.44-1.51-3.11-1.84a.37.37 0 0 0-.41.52q1.01 2.32 3.14 3.35a.21.21 0 0 1-.03.39l-79.58 23.59a1.67 1.61-44 0 1-.97 0c-39.08-12.02-78.36-24.28-115.12-33.81q-1.57-.41-5.87-1.32a.12.12 0 0 0-.07.23m199.32 6.33a1.31 1.3 37 0 0-.24-1.68q-4.49-3.94-10.07-1.8a.99.96-40.1 0 1-.84-.06q-2.22-1.24-4.73-.13a1.18 1.17-43 0 1-1.02-.03q-1.79-.93-3.78-.7a2.99 2.87 48.6 0 1-1.17-.1q-6.23-1.9-13.86-2.64-1.05-.1-1.8.14a1.16 1.16 0 0 1-.95-.11c-2.02-1.22-4.28.17-6.48-.72q-2.08-.84-3.95.29a.95.94 50.3 0 1-1.11-.11q-1.29-1.15-3.93-.08a1.42 1.41 37.4 0 1-.77.1c-2.16-.31-3.7-1.34-5.47.04a.57.57 0 0 1-.92-.43q-.12-3.31-2.96-4.86c-6.85-3.74-15.92-3.56-23.15-1.27q-2.66.85-4.3 2.49c-3.78 3.76 1.89 6.7 5.01 7.65q9.92 3.02 20.21-.55a.24.23 68 0 1 .3.13q2.03 5.02 7.96 3.58a2.14 2.14 0 0 1 1 0c2.6.62 4.73-.29 7.28.2q1.26.25 2.48-.27a1.32 1.28 42.9 0 1 .96-.02q1.91.69 4.68.37a2.83 2.8 52.7 0 1 1.43.2q1.63.69 3.37.53c2.02-.19 3.14.87 5.28.91 1.53.03 2.89.61 4.8 1.16q.66.19 2.73.28c2.08.09 3.02 1.38 5.35.64a1.72 1.66 41.6 0 1 .92-.04q2.31.51 4.12-.09a1.31 1.25 44.3 0 1 .81.01q2.42.82 4.92-.1a1.24 1.2-42.7 0 1 .88.02q2 .87 4.93-.17a.55.54-10 0 0 .36-.51v-.33a.45.45 0 0 0-.61-.42q-1.25.48-2.46.23a1.25 1.12-19 0 1-.45-.19l-3.36-2.45a.95.95 0 0 1 .66-1.71q3.11.31 6.47 2.89a.99.99 0 0 0 1.44-.25z" fill="url(&quot;#SvgjsLinearGradient1011&quot;)"></path><ellipse rx="13.18" ry="5.38" transform="rotate(1.2 -6936.899 12559.741)" fill="url(&quot;#SvgjsLinearGradient1011&quot;)"></ellipse><path d="M284.94 154.74q-3.79.35-6.04-3.21a.67.67 0 0 1 .7-1.02q2.78.57 5.58 3.61a.37.37 0 0 1-.24.62M279.05 153.76a.47.47 0 0 1-.23.71q-3.2 1.06-5.23-2.1a1.09 1.05 69.9 0 1 .73-1.67c1.56-.16 2.53 1.31 3.61 2.13q.98.74 1.12.93" fill="url(&quot;#SvgjsLinearGradient1011&quot;)"></path><ellipse rx="3.35" ry="1.22" transform="rotate(29.6 -145.341 619.745)" fill="url(&quot;#SvgjsLinearGradient1011&quot;)"></ellipse><path d="M296.48 154.47a.39.39 0 0 1-.42.55q-4.2-.87-6.19-3.04a.7.7 0 0 1 .53-1.17q4.37.11 6.08 3.66M301.69 155.51q-3.79.07-5.76-3.63a.67.67 0 0 1 .77-.96q2.72.77 5.27 3.99a.37.37 0 0 1-.28.6M300.99 152.63a.19.19 0 0 1-.02-.27l.23-.28a3.1 1.81 39.2 0 1 3.54.56l.59.48a3.1 1.81 39.2 0 1 1.26 3.36l-.23.28a.19.19 0 0 1-.27.02z" fill="url(&quot;#SvgjsLinearGradient1011&quot;)"></path><ellipse rx="3.34" ry="1.21" transform="rotate(44.2 -36.019 458.968)" fill="url(&quot;#SvgjsLinearGradient1011&quot;)"></ellipse><path d="M318.11 158.18q-3.86.09-5.89-3.66a.68.68 0 0 1 .77-.98q2.78.76 5.4 4.03a.38.38 0 0 1-.28.61M321.62 158.42a2.57 2.56-25.9 0 1-1.69-.58q-1.68-1.36-2.32-3.02a.49.48 87.6 0 1 .59-.64q2.66.82 4.97 2.89a.76.76 0 0 1-.5 1.33zM329.02 158.5q-3.77.52-6.17-2.93a.67.67 0 0 1 .65-1.05q2.8.44 5.73 3.35a.37.37 0 0 1-.21.63" fill="url(&quot;#SvgjsLinearGradient1011&quot;)"></path><ellipse rx="3.59" ry="1.41" transform="rotate(35.4 -74.818 624.104)" fill="url(&quot;#SvgjsLinearGradient1011&quot;)"></ellipse><path d="M356.54 162.22v1.27a.92.91-66.7 0 1-1.58.63q-2.56-2.72-3.63-5.9a.59.58 1 0 1 .76-.73q2.02.73 3.7 2.71a3.1 3.09-65.4 0 1 .75 2.02M358.51 163.11a.47.47 0 0 1 .8-.27l1.41 1.41a1.15 1.15 0 0 1 .13 1.47l-2.02 2.93a.91.85 2 0 1-.31.27q-1.54.81-1.7-1.3-.03-.5.24-1 1.3-2.37 1.45-3.51M360.17 168.62a.72.72 0 0 1 1.27.23l.21.74a2.03 2.01 55.4 0 1-.32 1.79l-2.59 3.4a.75.75 0 0 1-1.32-.24l-.14-.46a2.43 2.42-34.7 0 1 .4-2.18z" fill="url(&quot;#SvgjsLinearGradient1011&quot;)"></path><rect width="2.6" height="6.78" x="-1.3" y="-3.39" rx="1.24" transform="rotate(40.5 -60.358 576.06)" fill="url(&quot;#SvgjsLinearGradient1011&quot;)"></rect><path d="M259.83 197.89h.42q27.62-8.34 64.34-19.06a.61.61 0 0 1 .76.45q1.65 7.19 2.7 14.62c1.83 13.05-.15 22.69-10.76 31.2-15.59 12.51-37.72 18.13-57.29 20.37q-.18.03-.28.03t-.29-.03c-19.56-2.33-41.66-8.06-57.19-20.64-10.57-8.56-12.51-18.21-10.62-31.25q1.09-7.43 2.77-14.61a.61.61 0 0 1 .76-.44q36.67 10.89 64.26 19.35.01.01.42.01m-65.152 4.647a10.66.79 98.7 0 0 2.393-10.418 10.66.79 98.7 0 0 .831-10.656 10.66.79 98.7 0 0-2.393 10.418 10.66.79 98.7 0 0-.831 10.656m130.617.249a10.74.82 82 0 0-.683-10.75 10.74.82 82 0 0-2.307-10.522 10.74.82 82 0 0 .683 10.75 10.74.82 82 0 0 2.307 10.522M257.99 224.74q0 4.01.57 8.03.83 5.9 1.42 5.9t1.4-5.9q.55-4.02.54-8.04-.01-4.01-.57-8.03-.83-5.9-1.42-5.9t-1.4 5.9q-.55 4.03-.54 8.04m-55.73-8.45c8.93 13.8 28.72 19.86 44.44 21.04a.21.21 0 0 0 .08-.41q-12.67-4.46-25.95-9.82-3.9-1.58-7.07-3.36-6.06-3.39-6.75-3.99-4.33-3.75-4.47-3.8a.23.23 0 0 0-.28.34m114.76.77a.22.22 0 0 0-.27-.32q-.13.05-4.19 3.69-.65.58-6.36 3.91-2.99 1.74-6.67 3.31-12.55 5.31-24.53 9.76a.2.2 0 0 0 .08.39c14.94-1.38 33.67-7.46 41.94-20.74M364.17 209.95h2.04a.34.33-19.3 0 1 .26.12q2.13 2.43 1.44 4.4c-1.26 3.56-6.67 3.9-9.96 3.35-2.75-.46-6.49-3.37-4.85-6.43q.79-1.49 2.66-1.75a.28.27 59.2 0 0 .12-.49q-5.88-4.37-5.28-12.14c.31-3.99 2.97-10.19 7.16-11.13a.32.32 0 0 0 .12-.56c-1.31-.99-.92-2.42.42-3.19q1.21-.7 2.13-2.18a.81.8-40.5 0 1 1.43.11l.2.48a1.67 1.66 55.8 0 1-.35 1.84l-2.51 2.51a.28.28 0 0 0 .23.48c7.18-.78 11.31 7.52 11.17 13.58q-.18 7.76-6.55 10.43a.3.3 0 0 0 .12.57m-10.28-12.62q-.22 3.08 1.34 6.26a.16.13 78 0 0 .11.08q.03.01.06 0a.22.13 73.7 0 0 .06-.23q-.95-3.89-.79-6.05t1.66-5.86a.22.13-65.3 0 0-.02-.24q-.03-.02-.06-.01a.16.13-69.7 0 0-.12.06q-2.01 2.92-2.24 5.99" fill="url(&quot;#SvgjsLinearGradient1011&quot;)"></path><path d="M355.17 257.01q-4.3 8.33-4.81 15.98a.26.26 0 0 1-.37.21q-2.15-1.05-4.53-.7a.53.52-81.8 0 1-.55-.74q4.01-8.78 9.67-20.4 1.65-3.4 3.98-11.39a.2.2 0 0 0-.13-.24.2.2 0 0 0-.25.11c-3.75 9.5-6.04 15.97-10.35 23.35a4.73 4.01 85.3 0 1-.5.7q-3.81 4.51-5.02 7.6a.56.56 0 0 1-.87.23q-1.89-1.56-4.31-1.11a.33.33 0 0 1-.29-.57q7.24-6.93 11.49-16.55a.09.07-81.7 0 0-.07-.13q-.04.01-.06.01a.13.06-64.3 0 0-.1.08q-3.78 6.78-10.09 12.54-1.1 1-3.09 5.32a.58.58 0 0 1-1.06 0l-.22-.47a3.39 3.38-47.8 0 1-.12-2.53c1.81-5.08 6.85-9.9 9.27-13.25q3.21-4.45 6.94-14.18a.22.22 0 0 0-.31-.27q-.22.13-.38.45-5.31 11.1-13.49 19.49c-2.26 2.31-3.81 4.87-4.4 7.88a.46.46 0 0 1-.85.14c-1.66-2.92 1.61-7.32 3.42-9.34a.34.33 39.8 0 0-.05-.48l-.05-.03a.3.29 34.7 0 0-.35.06l-4.7 4.77a2.05 2.05 0 0 1-1.45.6h-5.22a.52.52 0 0 1-.34-.91q1.44-1.25 3.41-2.15c4.51-2.06 8.74-5.2 11.18-8.46q4.67-6.21 13.06-17.13 3.81-4.95 7.2-13.37a.16.16 0 0 0-.08-.2l-.01-.01a.23.23 0 0 0-.3.1c-3.46 6.44-9.32 12.75-13.32 18.41q-7.22 10.21-9.11 12.67-1.59 2.08-2.89 3.1a.16.16 0 0 1-.24-.21l23.75-38.21a.56.56 0 0 1 .67-.23q5.26 1.97 10.7.16a.92.92 0 0 1 1.14.5c2.21 4.84 4.52 12.08 5.46 16.73 2.61 12.97-4.39 23.96-9.63 35.05a2.76 2.62-30.6 0 0-.23.81l-.44 3.42a.47.47 0 0 1-.7.35q-1.53-.87-2.99-.29a.84.84 0 0 1-1.05-1.16q2.47-4.83 5.15-9.82 4.97-9.29 6.88-19.92a.27.26 11.8 0 0-.2-.3l-.06-.01a.27.27 0 0 0-.31.19q-2.66 10.13-8.53 18.63a.23.23 0 0 1-.31.07l-.01-.01a.24.23-61.7 0 1-.09-.31q5.78-11.66 6.12-25.14.2-7.95.33-12.42a.22.22 0 0 0-.2-.22h-.01a.22.22 0 0 0-.24.19q-3.23 21.67-3.84 26.46-.83 6.49-4.57 12.34a9.44 9.41 62.8 0 0-1.48 4.64l-.37 7.45a.53.52-61.3 0 1-.95.28c-2.79-3.87-1.59-9.93-.02-14.55q.86-2.55 1.05-3.55a.17.17 0 0 0-.31-.11m6.64-35.38-10.43 24.82a.11.11 0 0 0 .06.14l.04.01a13.46 1.31-67.2 0 0 6.42-11.9l.09-.2a13.46 1.31-67.2 0 0 4-12.91l-.03-.02a.11.11 0 0 0-.15.06M81.91 289.57a.2.2 0 0 0-.28-.12l-.27.13a.05.04-27.1 0 0-.02.05q6.15 19.33 18.71 35.85 26.23 34.53 66.23 52.3a.38.38 0 0 1-.13.72q-20.84 1.31-49.27 3.42-4.95.36-10.85-3.06-9.52-5.53-17.64-13.49a.34.34 0 0 1 .32-.57q15.98 3.97 31.84.23a.2.2 0 0 0-.04-.4l-10.13-.47a6.44 6.36-33.6 0 1-1.9-.37q-15.51-5.49-29.2-12.96a3.82 3.8-3.6 0 1-1.21-1.06c-5.48-7.33-7.44-15.59-10.52-24.77q-1.26-3.78-6.79-9.11a4.73 4.57-80.3 0 1-1.04-1.52q-1.39-3.27-.72-7.79a.22.22 0 0 1 .4-.09l6.92 11.01a3.18 3.16 88.3 0 0 1.17 1.11q19.01 10.59 22 12.4 4.44 2.68 7.08 5.04a4.32 4.17-86.5 0 1 .76.89q.32.51 5.37 7.67 2.9 4.11 7.6 5.83a.24.23 75.1 0 0 .23-.4l-2.35-2.04a2.16 2.1 4.4 0 1-.38-.43c-3.41-4.89-5.63-8.82-9.13-11.71q-18.49-15.27-27.77-28.27c-4.64-6.51-7.53-16.72-8.96-24.06-1.82-9.38-2.45-15.49-6.57-21.67a.27.27 0 0 1 .34-.39c6.56 3.25 10.26 8.99 12.91 16.13q3.85 10.37 8.18 19.27a.21.2-64.8 0 0 .38-.14c-.6-2.55-1.77-5.64-2.27-8.24-3.72-19.33 2.87-39.15 16.55-53.34q7.59-7.89 16.25-14.39a.25.25 0 0 1 .39.27q-4.13 13.32-14.54 22.53a3.43 3.34-7.4 0 0-.8 1.01c-4.7 8.85-7.16 18.72-3.36 28.67a.32.32 0 0 0 .61-.08q.39-4.2 3.14-7.29a.3.3 0 0 1 .52.27l-1.03 4.2a1.75 1.75 0 0 0 .64 1.82l.29.22a.27.26-64.2 0 0 .42-.15l1.7-6.87a.38.37 10.4 0 1 .41-.28c4.85.56 6.55 4.13 7.12 8.63 1.33 10.38-1.26 20.36-5.49 30.04a3.11 3.04-33.1 0 0-.27 1.21q-.1 5.74 1.58 12.63a.19.19 0 0 0 .38-.01l.87-5.24a2.36 2.33-21.2 0 1 .5-1.11q1.57-1.94 1.86-2.94a.34.34 0 0 0-.48-.4q-1.38.74-1.69 1.4a.46.46 0 0 1-.88-.23c.44-5.93 2.8-10.11 6.04-16.34q6.66-12.82 16.49-22.9a.4.39 77.8 0 1 .65.42q-4.99 12.78-7.06 25.61-1.14 7.08 1.72 15.07a2.46 2.45 39.5 0 1 .12 1.23q-1.6 10.33 1.4 20.64.27.92.81 2.13a.28.28 0 0 0 .35.15h.02a.25.24-21.1 0 0 .14-.31q-1.75-5.02-1.85-14.52-.03-3.93 1.27-6.25 7.07-12.57 16.39-23.77a.35.35 0 0 1 .62.21c.04 1.31-.92 3.16-1.15 5.18q-2.36 20.77 5.86 39.93 5.5 12.81 15.33 22.94a.47.47 0 0 0 .77-.53l-7.05-14.73a4.55 4.44-59.8 0 1-.44-1.76q-.52-12.08 5.1-23.07a.28.28 0 0 1 .52.15c-.44 5.54-.33 8.06 2.42 12.45q7.6 12.13 19.72 20.23a2.06 2.05-84.5 0 1 .77.94q4.67 11.25 14.46 19.4a.16.15-85.2 0 0 .23-.2q-8.7-15.62-3.46-33.35a.27.27 0 0 1 .53.06q.47 4.9 3.13 9.23 8 13.02 21.07 21.1a.53.53 0 0 1 .14.78q-4.77 6.02-.79 11.87a.33.33 0 0 1-.36.51c-11.53-2.94-23.96-3.49-36.07-3.16a2.69 2.66 57.3 0 1-1.29-.29c-10.06-5.12-22.56-12.55-42.66-24.26q-7.4-4.31-12.02-8.36-24.12-21.17-37.15-49.6-.9-1.97-2.41-6.32M442.43 296.46q2.32-3.33 3.93-7.37 3.85-9.73 6.05-14.88 3.65-8.55 11.47-12.83a.26.26 0 0 1 .34.37c-3.68 5.79-4.85 12.08-6.17 19.81-1.6 9.37-4.78 20.7-11 28.41q-9.95 12.36-21.47 21.89c-4.49 3.72-7.51 6.17-10.49 11.01q-2.7 4.4-5.76 7.16a.28.28 0 0 0 .3.46q5.21-2.14 8.47-7.4 1.84-2.96 4.59-6.74a9.04 8.95 2.9 0 1 2.77-2.48l27.36-15.8a2.23 2.2.4 0 0 .77-.75l6.72-10.82a.26.26 0 0 1 .47.1q.59 3.87-.6 7.3c-.66 1.87-2.57 2.66-3.67 4.06q-4.07 5.23-4.79 7.54c-2.21 7.07-3.95 13.85-7.69 20.51q-1.5 2.67-3.17 4.4a3.71 3.62 7.5 0 1-.91.68q-16.66 8.71-27.61 12.13-5.29 1.65-13.23 1.03a.03.02-58.3 0 0-.02.01l-.19.4a.23.23 0 0 0 .15.33q16.43 3.79 32.47-.15a.18.18 0 0 1 .17.31c-6.5 5.93-19.63 17.46-28.94 16.69q-25.5-2.1-48.92-3.4a.35.35 0 0 1-.13-.66q37.44-16.81 63.01-48.6c8.85-11 17.04-24.96 20.54-37.36q.23-.83.14-1.62a.06.06 0 0 0-.11-.01c-7.52 20.86-21.87 39.91-38.42 54.68q-4.8 4.28-11.83 8.41-26.26 15.42-43.31 24.74a3.05 3.03-57.8 0 1-1.6.37q-17.82-.79-35.81 2.88a.23.23 0 0 1-.24-.34q3.85-6.3-1.01-11.8a.51.51 0 0 1 .11-.77q13.61-8.55 21.76-22.67 1.97-3.41 2.13-7.31a.3.3 0 0 1 .59-.09c3.73 10.35 2.25 23.3-3.32 32.88a.2.19 85.3 0 0 .29.25q7.51-6.32 12.1-13.76c.98-1.59 1.72-4.05 2.75-5.53a4.76 4.67-89.2 0 1 1.22-1.21q12.34-8.44 19.49-20.94 3-5.25 1.43-11.16a.42.41-14.2 0 1 .31-.51l.25-.06a.19.19 0 0 1 .22.1q5.69 11.59 4.99 23.59a2.22 2.08 61.7 0 1-.21.79l-7.49 15.62a.29.29 0 0 0 .45.35q4.97-4.24 8.7-9.84 15.29-22.91 13.47-50.34-.27-3.96-1.58-8.56a.2.2 0 0 1 .34-.19q9.83 11.39 16.96 24.46.92 1.68.92 3.53-.01 9.52-.77 12.45-.57 2.16-.79 4.05a.21.21 0 0 0 .4.11q2.45-5.99 2.64-12.14.16-5.28-.31-9.93a4.01 3.94-40.6 0 1 .13-1.5q2.5-8.64 1.56-14.64-2.04-13.04-7.09-26.27a.25.25 0 0 1 .41-.26q14.05 14.09 21.41 33.09 1.15 2.97 1.37 6.6a.4.39-64 0 1-.72.25q-.97-1.46-2.09-1.82a.35.35 0 0 0-.39.54q3.31 4.38 3.13 8.21a.31.31 0 0 0 .61.11q1.7-5.4 1.54-11.55a3.03 3.02-58.5 0 0-.31-1.29q-1.06-2.24-3.12-8.5c-2.47-7.46-6.5-28.51 4.97-30.24a.32.31 78.3 0 1 .36.24l1.64 6.6a.37.36 67.7 0 0 .54.23l.24-.13a1.46 1.45-22.2 0 0 .68-1.6l-1.03-4.16a.41.41 0 0 1 .73-.35q2.5 3.3 2.9 7.57a.24.24 0 0 0 .46.07c3.99-10.2 1.59-19.37-2.96-28.75a3.67 3.56-83.6 0 0-.89-1.15q-10.66-9.32-14.57-22.7a.26.26 0 0 1 .4-.28c21.84 15.71 36.22 36.54 33.14 64.75q-.32 2.94-2.88 11.02a.08.08 0 0 0 .15.07M259.77 253.03c10.5 0 20.36 1.19 30.11 4.36 6.06 1.97 14.36 6.68 15.71 13.1 2.04 9.75-8.29 18.15-15.89 21.5-4.48 1.97-14.84 6.22-16.53 10.98-1.42 4.03-8.73 4.99-12.55 4.97a.37.37 0 0 1-.35-.48q1.83-5.75 7.91-7.06a.26.26 0 0 0-.04-.51q-3.92-.19-8.33-.18-4.42 0-8.34.19a.26.26 0 0 0-.04.51q6.08 1.3 7.92 7.05a.37.37 0 0 1-.35.48c-3.82.03-11.13-.92-12.55-4.95-1.7-4.76-12.07-8.99-16.55-10.96-7.6-3.34-17.95-11.72-15.92-21.47 1.34-6.43 9.63-11.15 15.69-13.13 9.75-3.18 19.6-4.39 30.1-4.4m39.05 18a38.92 15.36 0 0 0-38.92-15.36 38.92 15.36 0 0 0-38.92 15.36 38.92 15.36 0 0 0 38.92 15.36 38.92 15.36 0 0 0 38.92-15.36m-39.56 21.55c9.73.07 19.91-1.68 28.9-5.9a.11.05 87.1 0 0 .04-.1v-.07a.17.08-11.8 0 0-.21-.06c-9.22 2.82-18.86 3.5-28.71 3.43-9.86-.07-19.48-.89-28.67-3.84a.17.08 12.6 0 0-.21.06v.07a.11.05-86.3 0 0 .04.1c8.93 4.34 19.09 6.24 28.82 6.31" fill="url(&quot;#SvgjsLinearGradient1011&quot;)"></path><path d="M295.48 271a35.57 13.46 0 0 1-35.57 13.46A35.57 13.46 0 0 1 224.34 271a35.57 13.46 0 0 1 35.57-13.46A35.57 13.46 0 0 1 295.48 271m-35.88 7.38q.24 0 .41-.59 3.32-11.98 14.53-16.28a.16.16 0 0 0-.04-.3q-6.83-1.05-14.88-1.06t-14.89 1.02a.16.16 0 0 0-.03.3q11.19 4.33 14.48 16.32.17.59.42.59M259.96 316.97c-6.16.03-16.06-.5-19.88-5.89-2.04-2.88-.41-6.1 2.64-7.46a.34.34 0 0 1 .47.39c-1.83 6.87 13.26 8.33 16.74 8.31 3.49-.02 18.56-1.63 16.66-8.49a.34.34 0 0 1 .47-.39c3.06 1.32 4.72 4.53 2.71 7.43-3.76 5.43-13.65 6.06-19.81 6.1m.85-2.35q-1.08-.38-2.24-.25a.31.31 0 0 0-.2.52q.49.53 2.4.2a.24.24 0 0 0 .04-.47" fill="url(&quot;#SvgjsLinearGradient1011&quot;)"></path><path d="M259.86 319.28c7.06-.01 16.47-.96 21.79-5.87q3.14-2.9 1.25-6.64a.29.29 0 0 1 .39-.39c2.91 1.5 5.38 4.02 4.72 7.51-1.8 9.48-21.24 10.76-28.15 10.77-6.9.01-26.35-1.23-28.17-10.71-.66-3.49 1.8-6.01 4.71-7.52a.29.29 0 0 1 .39.39q-1.88 3.74 1.26 6.64c5.33 4.9 14.75 5.82 21.81 5.82m-2.93 2.25-.02 1a.17.17 0 0 0 .17.17l1.42.02a5.11.6.7 0 0 5.12-.54v-.14a5.11.6.7 0 0-5.1-.66l-1.42-.02a.17.17 0 0 0-.17.17" fill="url(&quot;#SvgjsLinearGradient1011&quot;)"></path><path d="M225.49 315.12a.24.24 0 0 1 .43-.16q2.84 3.92 7.68 6.19c13.05 6.15 30.31 6.28 44.39 2.87 6.02-1.45 12.33-4.17 15.81-9.36a.28.28 0 0 1 .51.17c-1.07 18.45-10.22 28.99-28.39 32.27q-14.25 2.57-26.17-4.54c-8.99-5.35-13.43-17.15-14.26-27.44m35.14 12.61q-1.29-.14-2.28.08a.34.34 0 0 0 .08.67h2.04a.27.26 12.2 0 0 .24-.15l.12-.24a.25.25 0 0 0-.2-.36m-.96 17.03q.2 0 .24-.13c1.78-6.04 6.81-13.55 13.25-15.55a.15.15 0 0 0-.06-.29q-7.13.66-13.42.66-6.29-.01-13.43-.68a.15.15 0 0 0-.05.29c6.43 2.01 11.45 9.53 13.23 15.57q.03.13.24.13" fill="url(&quot;#SvgjsLinearGradient1011&quot;)"></path><path d="M252.42 360.18c-2.95-.87-6.63-2.05-5.74-5.88a.71.71 0 0 0-.38-.8l-5.74-2.75a5.07 5.06-77.2 0 1-2.87-4.57v-1.77a1.23 1.23 0 0 1 2.05-.91q3.63 3.29 10.08 5.07a.23.23 0 0 1 .16.22v.34a.05.04 0 0 1-.05.04q-3.5-.33-6.23-1.97a.23.22-57.4 0 0-.3.07l-.01.01a.25.25 0 0 0 .08.34q3.68 2.29 5.68 2.77c7.57 1.82 19.05 2.38 26.3-2.08a.15.15 0 0 0-.12-.27l-7.39 2.27a.07.06-9.7 0 1-.09-.06v-.53a.12.11-12.6 0 1 .07-.1q6.87-2.28 11.7-6.39a1.46 1.46 0 0 1 2.41 1.11v1.71a5.23 5.22 77.2 0 1-2.96 4.71l-6 2.87a.45.45 0 0 0-.25.51c.92 4.08-2.86 5.42-6.07 6.19a.25.23-13.2 0 0-.18.27v.01a.25.25 0 0 0 .28.21q5.25-.71 8.58-3.89a.55.55 0 0 1 .81.05q.95 1.21 6.01 5.53c5.34 4.57-1.92 8.61-5.63 9.87q-14.46 4.95-29.85 1.09c-3.46-.87-9.56-3.12-11.04-6.71a2.98 2.98 0 0 1 .74-3.34q6.16-5.64 6.85-6.41a.51.5 42.2 0 1 .72-.03q3.54 3.33 8.34 3.48a.14.14 0 0 0 .04-.28m11.19-2.132a4.21.58 1.2 0 0-4.198-.668 4.21.58 1.2 0 0-4.221.492 4.21.58 1.2 0 0 4.197.668 4.21.58 1.2 0 0 4.221-.492m-3.78 10.402q5.26.01 10.43-1.66a.2.2 0 0 0-.08-.39c-3.16.3-7.98 1.44-10.02-2.23q-.02-.05-.15-.08-.14-.05-.18-.05-.03 0-.17.05-.13.03-.15.08c-2.05 3.66-6.87 2.51-10.03 2.2a.2.2 0 0 0-.08.39q5.17 1.68 10.43 1.69" fill="url(&quot;#SvgjsLinearGradient1011&quot;)"></path><path d="M259.91 384.67c-10.25 0-20.93-1.39-29.67-6.39-3.19-1.83-6.63-5.69-3.66-9.47q1.49-1.89 6.68-4.3a.31.31 0 0 1 .44.35q-.85 3.97 1.02 5.95 3.78 4.02 9.57 5.38 8.93 2.09 15.63 2.09 6.69 0 15.62-2.08 5.79-1.36 9.57-5.38 1.87-1.98 1.03-5.95a.31.31 0 0 1 .44-.35q5.18 2.41 6.67 4.3c2.97 3.79-.47 7.64-3.66 9.47-8.75 4.99-19.42 6.38-29.68 6.38" fill="url(&quot;#SvgjsLinearGradient1011&quot;)"></path><path d="M259.87 386.51q10.66-.01 20.12-2.29c5.17-1.25 12.23-3.51 15.44-7.91 3.5-4.78.68-8.13-3.2-11.28a.18.18 0 0 1 .17-.31c5.47 1.93 14.52 5.85 11.6 13.38q-1.24 3.18-4.18 4.93a4.14 3.77-66.2 0 1-.79.35q-13.28 4.2-24.37 11.7a2 2 0 0 1-1.1.35q-11.63.25-13.68.25-2.05.01-13.68-.23a2 2 0 0 1-1.1-.35q-11.11-7.48-24.39-11.65a4.14 3.77 66.1 0 1-.79-.35q-2.95-1.75-4.19-4.93c-2.93-7.52 6.11-11.46 11.58-13.4a.18.18 0 0 1 .17.31c-3.88 3.16-6.69 6.51-3.18 11.29 3.21 4.39 10.28 6.64 15.45 7.88q9.46 2.26 20.12 2.26m-.09 5.03q-1.5.01-9.79-.52a.1.1 0 0 0-.11.11q.04.18.24.22 1.95.47 8.24 1.48a1.11 1.07-16.4 0 1 .61.32q.46.47.82.46.36 0 .81-.47a1.11 1.07 15.9 0 1 .61-.32q6.28-1.08 8.22-1.57.2-.04.24-.22a.1.1 0 0 0-.11-.11q-8.29.61-9.78.62M118.88 390.1l.38-1.52a.45.44-87.9 0 1 .35-.33q28.77-4.3 56.14-5.15c17.2-.53 35.13 1.59 50.53 7.63 10.12 3.96 22.49 11.47 28.66 20.91a.36.36 0 0 1-.48.5c-5.04-2.97-9.67-6.82-14.3-9.43q-20.82-11.69-44.4-12.22-9.48-.21-19.26.44-18.26 1.22-34.51 2.67c-8.9.79-16.76.92-25.47 1.23a.46.46 0 0 1-.48-.43q-.05-1.02.87-1.08 14.44-1.02 28.25-2.85c22.04-2.93 43.6-3.71 63.56-.43q16.97 2.78 33.28 12.77a.4.16 38.9 0 0 .23.07q.04 0 .08-.01a.03.03 0 0 0 .01-.05c-12.15-9.4-26.2-14.17-41.58-16.31-18.12-2.53-37.07-1.82-56.73.83q-14.73 1.99-25.07 2.83a.06.06 0 0 1-.06-.07M274.32 404.35q9.56-5.46 15.09-7.93c17.96-8 36.38-8.76 57.09-8.49q12.03.16 27.6 2.35 12.64 1.78 28.16 3.08a1.3 1.27-7.5 0 1 1.1.83l.07.18a.47.47 0 0 1-.48.63c-5.02-.45-11.75-.47-16.93-.9q-38.15-3.16-46.01-3.57-10.07-.53-21.56.2c-11.8.74-22.2 3.82-32.93 8.69-7.15 3.25-12.99 7.67-20.38 12.86a.46.46 0 0 1-.63-.66c1.38-1.76 2.9-3.9 4.28-5.22 15.15-14.47 35.18-21.17 55.68-22.74q20.25-1.54 43.79.75 24.25 2.36 28.41 3.05 1 .16 3.15.82a.93.9-3.5 0 1 .55.47l.67 1.41a.4.4 0 0 1-.52.54q-1.08-.48-7.04-1.01-1.65-.15-6.93-.98-14.77-2.34-24.05-3.14c-20.29-1.74-42.78-.84-61.9 5.02q-12.83 3.93-26.31 13.71a.03.03 0 0 0 .03.05" fill="url(&quot;#SvgjsLinearGradient1011&quot;)"></path><path d="M138.49 397.38c8.51.43 22.73-.95 31.72-.98 14.34-.05 25.3-.09 38.09 1.53 14.14 1.8 30.6 7.06 40.87 17a.37.36-42.1 0 1-.03.55q-.33.25-.68-.01-20.55-14.59-47.48-16.23-14.68-.89-24.23-.27-26.3 1.71-66.79 4.04a.22.22 0 0 1-.19-.36l4.35-5.74a.36.35-72.4 0 1 .26-.14q13.91-.67 33.1-2.81c19.67-2.18 39.16-2.66 59.05.03q14.85 2 30.01 8.47 6.57 2.81 11.55 7.31a.21.21 0 0 1 .02.3.26.25-50.8 0 1-.35.04q-3.34-2.61-8.01-4.99c-22.65-11.53-50.99-12.64-76.76-10.26-13.54 1.25-21.7 1.91-24.5 2.42a.05.05 0 0 0 0 .1M382.87 397.24c-3.97-.81-8.55-.68-13.25-1.21-22.25-2.5-44.37-3.54-65.47.61q-17.24 3.4-32.36 13.16a.2.2 0 0 1-.26-.05v-.01a.21.21 0 0 1 .04-.29q6.94-5.38 14.3-8.33c32.59-13.07 68.93-9.34 102.88-5.58q5.75.64 15.82 1.07a1.47 1.45-17.9 0 1 1.07.54l4 5.02a.43.42 72.1 0 1-.35.69q-21.48-1.01-48.04-2.87c-27.3-1.91-58.13-3.88-82.51 10.47q-4.29 2.52-8.35 5.06a.38.38 0 0 1-.46-.6c16.45-14.89 40.65-18.27 62.07-18.5q25.19-.28 43.99 1.04 3.21.23 6.87-.04a.09.09 0 0 0 .01-.18" fill="url(&quot;#SvgjsLinearGradient1011&quot;)"></path><path d="M239.03 416.51a.2.2 0 0 0 .16-.37c-15.23-8.11-31.27-10.93-48.65-12.06-17.3-1.13-35.17-1-52.64 1.62-12.71 1.9-20.74 2.99-33.82 3.56a.15.15 0 0 1-.12-.26l3.74-3.74a.38.38 0 0 1 .24-.11c20.15-1.43 39.67-3.03 60.59-3.29q21.24-.26 42.75 3.12c11.91 1.88 26.12 6.33 34.94 14.47a.32.32 0 0 1-.38.51q-2.01-1.13-4.39-1.83-27.83-8.23-57.42-8.51-32.31-.31-66.63 2.5c-5.92.48-11.29.63-16.58 1.02a.42.41-69.5 0 1-.32-.71l.57-.57a1.61 1.58-68.8 0 1 1.06-.48c35.54-2.07 63.71-4.29 94.16-2.54q22.37 1.28 42.74 7.67M280.53 416.49q20.36-6.4 42.72-7.69c30.44-1.77 58.6.44 94.13 2.49a1.61 1.58 68.8 0 1 1.06.48l.57.57a.42.41 69.5 0 1-.32.71c-5.29-.39-10.66-.54-16.58-1.02q-34.3-2.79-66.6-2.46-29.58.3-57.4 8.54-2.38.7-4.39 1.83a.32.32 0 0 1-.38-.51c8.82-8.14 23.02-12.6 34.92-14.48q21.5-3.39 42.74-3.14c20.91.24 40.42 1.83 60.57 3.25a.38.38 0 0 1 .24.11l3.74 3.74a.15.15 0 0 1-.12.26c-13.08-.56-21.11-1.65-33.81-3.54-17.47-2.61-35.33-2.73-52.62-1.59-17.38 1.14-33.41 3.96-48.63 12.08a.2.2 0 0 0 .16.37" fill="url(&quot;#SvgjsLinearGradient1011&quot;)"></path><path d="M234.33 418.57c-3.74-.62-8.67-1.89-12.76-2.4-41.36-5.16-82.91-.42-124.48 1.06a.27.26 89 0 1-.27-.27v-.47a.51.51 0 0 1 .45-.51c6.38-.7 16.92-.47 24.53-1.01 22.04-1.56 46.35-2.85 69.94-2.3q22.1.51 42.84 5.34a.2.2 0 0 1 .16.24v.03a.37.36-80 0 1-.41.29M284.69 418.28a.2.2 0 0 1 .16-.24q20.76-4.85 42.88-5.38c23.62-.57 47.95.7 70.02 2.24 7.62.54 18.17.3 24.55.99a.51.51 0 0 1 .45.51v.47a.27.26-89 0 1-.27.27c-41.61-1.44-83.21-6.15-124.6-.95-4.1.51-9.03 1.79-12.77 2.41a.37.36 79.9 0 1-.42-.29z" fill="url(&quot;#SvgjsLinearGradient1011&quot;)"></path><path d="M259.74 415.39q3.94 0 6.41 2.51 3.95 4 7.6 8.07a.88.87 42.5 0 0 1.34-.05l1.3-1.71a1.43 1.43 0 0 1 .98-.56c20.78-2.28 44.4-2.62 62.88-2.32q68.92 1.11 92.5 1.92 2.17.08 3.14.99a2.15 2.14-22.4 0 1-1.54 3.7q-51.64-1.57-93.35-2.03-22.75-.25-59.34 2.25c-.74.05-1.47-.18-1.96-.12a.98.98 0 0 0-.81.61c-3.25 7.88-11.51 9.6-18.9 10.77q-.07.01-.25.01t-.25-.01c-7.39-1.17-15.65-2.89-18.9-10.77a.98.98 0 0 0-.81-.61c-.49-.06-1.22.17-1.96.12q-36.59-2.5-59.34-2.25-41.71.46-93.35 2.03a2.15 2.14 22.4 0 1-1.54-3.7q.97-.91 3.14-.99 23.58-.81 92.5-1.92c18.48-.3 42.1.04 62.88 2.32a1.43 1.43 0 0 1 .98.56l1.3 1.71a.88.87-42.5 0 0 1.34.05q3.65-4.07 7.59-8.07 2.48-2.51 6.42-2.51m-.06 17.61q-5.94-.01-10.21-1.55a.15.15 0 0 0-.13.26c3.01 2.15 6.49 2.94 10.34 2.95 3.84 0 7.32-.77 10.34-2.91a.15.15 0 0 0-.13-.26q-4.28 1.52-10.21 1.51" fill="url(&quot;#SvgjsLinearGradient1011&quot;)"></path><path d="M227.37 421.22q-.15.04-10.76-.74-1.44-.1-10.72-.29-25.96-.52-70.89 1.22-10.34.41-41.94.3a.57.57 0 0 1-.57-.57l-.01-.04a.6.6 0 0 1 .58-.6c12.86-.43 25.42-.9 40.25-1.75 30.29-1.75 54.98-2.29 83.2.19q5.9.51 10.89 1.48a.28.27 2.9 0 1 .22.24l.02.14a.39.39 0 0 1-.27.42M291.08 420.74a.28.27-3 0 1 .22-.24q5.02-.99 10.96-1.51c28.41-2.54 53.26-2.03 83.76-.31 14.93.83 27.57 1.28 40.52 1.7a.6.6 0 0 1 .58.6l-.01.04a.57.57 0 0 1-.57.57q-31.81.16-42.22-.23-45.23-1.69-71.36-1.13-9.35.21-10.8.31-10.68.8-10.83.76a.4.39 12.5 0 1-.27-.42z" fill="url(&quot;#SvgjsLinearGradient1011&quot;)"></path></g></g><g id="SvgjsG1008" featurekey="8L6ael-0" transform="matrix(2.7277747962683896,0,0,2.7277747962683896,110.30877961330656,1.4882363148942073)" fill="url(&quot;#SvgjsLinearGradient1014&quot;)"><path d="M6.62 20.12 c-0.46 0 -0.94 -0.06 -1.44 -0.16 c-1.48 -0.3 -2.92 -1.02 -4.18 -2.12 l-0.38 -0.34 l1.76 -2 l0.38 0.34 c0.92 0.8 1.94 1.34 2.94 1.54 l0.02 0 c0.3 0.06 0.6 0.1 0.9 0.1 c0.5 0 0.96 -0.1 1.34 -0.28 c0.48 -0.2 1.04 -0.64 1.04 -1.46 c0 -0.44 -0.22 -0.78 -0.68 -1.06 c-0.56 -0.34 -1.32 -0.52 -1.86 -0.62 c-0.24 -0.04 -2.28 -0.46 -3.22 -0.98 c-0.62 -0.38 -1.1 -0.86 -1.44 -1.42 c-0.34 -0.58 -0.5 -1.22 -0.5 -1.92 c0 -0.76 0.24 -1.52 0.7 -2.22 c0.44 -0.58 1.04 -1.06 1.76 -1.4 s1.52 -0.52 2.38 -0.52 c0.34 0 0.7 0.04 1.06 0.08 c1.32 0.24 2.62 0.84 3.76 1.8 l0.38 0.32 l-1.7 2.06 l-0.38 -0.32 c-1.3 -1.06 -2.42 -1.3 -3.14 -1.3 c-0.46 0 -0.88 0.1 -1.24 0.26 c-0.56 0.26 -0.92 0.74 -0.92 1.22 c0 0.44 0.16 0.72 0.54 0.98 s0.96 0.46 1.88 0.66 c0.12 0.02 0.28 0.06 0.44 0.1 c0.84 0.16 1.96 0.4 2.74 0.86 c0.68 0.36 1.2 0.86 1.56 1.44 s0.54 1.26 0.54 1.98 c0 0.9 -0.24 1.7 -0.72 2.38 c-0.42 0.58 -1.04 1.08 -1.86 1.48 c-0.7 0.36 -1.48 0.52 -2.46 0.52 z M20.834 20 l-2.68 0 l0 -11.6 l-3.5 0 l0 -2.64 l9.68 0 l0 2.64 l-3.5 0 l0 11.6 z M32.568 20 l-4.78 0 l0 -14.24 l4.78 0 c4.02 0 7.3 3.2 7.3 7.12 s-3.28 7.12 -7.3 7.12 z M30.448 17.38 l2.12 0 c2.56 0 4.64 -2.02 4.64 -4.5 s-2.08 -4.5 -4.64 -4.5 l-2.12 0 l0 9 z M47.042 20 l-2.68 0 l0 -14.24 l2.68 0 l0 14.24 z M64.036 20 l-2.58 0 l-6.32 -9.34 l0 9.34 l-2.68 0 l0 -14.24 l2.6 0 l6.3 9.32 l0 -9.32 l2.68 0 l0 14.24 z M71.41 20 l-2.66 0 l0 -14.24 l9.36 0 l0 2.62 l-6.7 0 l0 2.1 l3.7 0 l0 2.64 l-3.7 0 l0 6.88 z M87.70400000000001 20.2 c-4.1 0 -7.44 -3.32 -7.44 -7.42 c0 -4.12 3.34 -7.46 7.44 -7.46 c4.12 0 7.46 3.34 7.46 7.46 c0 4.1 -3.34 7.42 -7.46 7.42 z M87.70400000000001 7.98 c-2.62 0 -4.76 2.14 -4.76 4.8 c0 2.64 2.14 4.78 4.76 4.78 s4.76 -2.14 4.76 -4.78 c0 -2.66 -2.14 -4.8 -4.76 -4.8 z" fill="url(&quot;#SvgjsLinearGradient1014&quot;)"></path></g></svg>